<mxfile host="app.diagrams.net" agent="Mozilla/5.0 (Windows NT 10.0; Win64; x64) AppleWebKit/537.36 (KHTML, like Gecko) Chrome/131.0.0.0 Safari/537.36" version="25.0.1">
  <diagram name="Page-1" id="odhmb9EHtA3xcFeE2y5e">
    <mxGraphModel>
      <root>
        <mxCell id="0" />
        <mxCell id="1" parent="0" />
        <mxCell id="2" value="Feedback Loop" style="whiteSpace=wrap;strokeWidth=2;" vertex="1" parent="1">
          <mxGeometry x="291" y="2253" width="212" height="210" as="geometry" />
        </mxCell>
        <mxCell id="3" value="Evaluation Phase" style="whiteSpace=wrap;strokeWidth=2;" vertex="1" parent="1">
          <mxGeometry x="8" y="2253" width="263" height="476" as="geometry" />
        </mxCell>
        <mxCell id="4" value="Deployment Phase" style="whiteSpace=wrap;strokeWidth=2;" vertex="1" parent="1">
          <mxGeometry x="255" y="1071" width="284" height="1132" as="geometry" />
        </mxCell>
        <mxCell id="5" value="Training Phase" style="whiteSpace=wrap;strokeWidth=2;" vertex="1" parent="1">
          <mxGeometry x="46" y="430" width="472" height="591" as="geometry" />
        </mxCell>
        <mxCell id="6" value="Data Collection" style="whiteSpace=wrap;strokeWidth=2;" vertex="1" parent="1">
          <mxGeometry x="161" y="8" width="216" height="372" as="geometry" />
        </mxCell>
        <mxCell id="7" value="Capture Images" style="ellipse;aspect=fixed;strokeWidth=2;whiteSpace=wrap;" vertex="1" parent="1">
          <mxGeometry x="205" y="33" width="126" height="126" as="geometry" />
        </mxCell>
        <mxCell id="8" value="Preprocess Images" style="ellipse;aspect=fixed;strokeWidth=2;whiteSpace=wrap;" vertex="1" parent="1">
          <mxGeometry x="196" y="209" width="146" height="146" as="geometry" />
        </mxCell>
        <mxCell id="9" value="Design CNN Architecture" style="ellipse;aspect=fixed;strokeWidth=2;whiteSpace=wrap;" vertex="1" parent="1">
          <mxGeometry x="174" y="455" width="190" height="190" as="geometry" />
        </mxCell>
        <mxCell id="10" value="Train Model" style="ellipse;aspect=fixed;strokeWidth=2;whiteSpace=wrap;" vertex="1" parent="1">
          <mxGeometry x="219" y="695" width="98" height="98" as="geometry" />
        </mxCell>
        <mxCell id="11" value="Save Trained Model" style="ellipse;aspect=fixed;strokeWidth=2;whiteSpace=wrap;" vertex="1" parent="1">
          <mxGeometry x="320" y="843" width="152" height="152" as="geometry" />
        </mxCell>
        <mxCell id="12" value="Input Image for Recognition" style="ellipse;aspect=fixed;strokeWidth=2;whiteSpace=wrap;" vertex="1" parent="1">
          <mxGeometry x="290" y="1096" width="214" height="214" as="geometry" />
        </mxCell>
        <mxCell id="13" value="Preprocess Input Image" style="ellipse;aspect=fixed;strokeWidth=2;whiteSpace=wrap;" vertex="1" parent="1">
          <mxGeometry x="306" y="1360" width="181" height="181" as="geometry" />
        </mxCell>
        <mxCell id="14" value="Load Trained Model" style="ellipse;aspect=fixed;strokeWidth=2;whiteSpace=wrap;" vertex="1" parent="1">
          <mxGeometry x="320" y="1591" width="154" height="154" as="geometry" />
        </mxCell>
        <mxCell id="15" value="Perform Inference" style="ellipse;aspect=fixed;strokeWidth=2;whiteSpace=wrap;" vertex="1" parent="1">
          <mxGeometry x="324" y="1795" width="145" height="145" as="geometry" />
        </mxCell>
        <mxCell id="16" value="Output Recognized Face" style="ellipse;aspect=fixed;strokeWidth=2;whiteSpace=wrap;" vertex="1" parent="1">
          <mxGeometry x="302" y="1990" width="188" height="188" as="geometry" />
        </mxCell>
        <mxCell id="17" value="Test Model Accuracy" style="ellipse;aspect=fixed;strokeWidth=2;whiteSpace=wrap;" vertex="1" parent="1">
          <mxGeometry x="51" y="2278" width="160" height="160" as="geometry" />
        </mxCell>
        <mxCell id="18" value="Adjust Hyperparameters" style="ellipse;aspect=fixed;strokeWidth=2;whiteSpace=wrap;" vertex="1" parent="1">
          <mxGeometry x="45" y="2513" width="190" height="190" as="geometry" />
        </mxCell>
        <mxCell id="19" value="Provide Feedback" style="ellipse;aspect=fixed;strokeWidth=2;whiteSpace=wrap;" vertex="1" parent="1">
          <mxGeometry x="326" y="2287" width="142" height="142" as="geometry" />
        </mxCell>
        <mxCell id="20" value="" style="curved=1;startArrow=none;endArrow=block;exitX=0.5;exitY=1;entryX=0.5;entryY=0;" edge="1" parent="1" source="7" target="8">
          <mxGeometry relative="1" as="geometry">
            <Array as="points" />
          </mxGeometry>
        </mxCell>
        <mxCell id="21" value="" style="curved=1;startArrow=none;endArrow=block;exitX=0.5;exitY=1;entryX=0.5;entryY=0;" edge="1" parent="1" source="8" target="9">
          <mxGeometry relative="1" as="geometry">
            <Array as="points" />
          </mxGeometry>
        </mxCell>
        <mxCell id="22" value="" style="curved=1;startArrow=none;endArrow=block;exitX=0.5;exitY=1;entryX=0.51;entryY=0;" edge="1" parent="1" source="9" target="10">
          <mxGeometry relative="1" as="geometry">
            <Array as="points" />
          </mxGeometry>
        </mxCell>
        <mxCell id="23" value="" style="curved=1;startArrow=none;endArrow=block;exitX=1.01;exitY=0.79;entryX=0.5;entryY=0;" edge="1" parent="1" source="10" target="11">
          <mxGeometry relative="1" as="geometry">
            <Array as="points">
              <mxPoint x="397" y="818" />
            </Array>
          </mxGeometry>
        </mxCell>
        <mxCell id="24" value="" style="curved=1;startArrow=none;endArrow=block;exitX=0.5;exitY=1.01;entryX=0.5;entryY=0;" edge="1" parent="1" source="11" target="12">
          <mxGeometry relative="1" as="geometry">
            <Array as="points" />
          </mxGeometry>
        </mxCell>
        <mxCell id="25" value="" style="curved=1;startArrow=none;endArrow=block;exitX=0.5;exitY=1;entryX=0.5;entryY=0;" edge="1" parent="1" source="12" target="13">
          <mxGeometry relative="1" as="geometry">
            <Array as="points" />
          </mxGeometry>
        </mxCell>
        <mxCell id="26" value="" style="curved=1;startArrow=none;endArrow=block;exitX=0.5;exitY=1;entryX=0.5;entryY=0;" edge="1" parent="1" source="13" target="14">
          <mxGeometry relative="1" as="geometry">
            <Array as="points" />
          </mxGeometry>
        </mxCell>
        <mxCell id="27" value="" style="curved=1;startArrow=none;endArrow=block;exitX=0.5;exitY=1;entryX=0.5;entryY=0;" edge="1" parent="1" source="14" target="15">
          <mxGeometry relative="1" as="geometry">
            <Array as="points" />
          </mxGeometry>
        </mxCell>
        <mxCell id="28" value="" style="curved=1;startArrow=none;endArrow=block;exitX=0.5;exitY=1;entryX=0.5;entryY=0;" edge="1" parent="1" source="15" target="16">
          <mxGeometry relative="1" as="geometry">
            <Array as="points" />
          </mxGeometry>
        </mxCell>
        <mxCell id="29" value="" style="curved=1;startArrow=none;endArrow=block;exitX=0;exitY=0.77;entryX=0.5;entryY=0;" edge="1" parent="1" source="10" target="17">
          <mxGeometry relative="1" as="geometry">
            <Array as="points">
              <mxPoint x="131" y="818" />
            </Array>
          </mxGeometry>
        </mxCell>
        <mxCell id="30" value="" style="curved=1;startArrow=none;endArrow=block;exitX=0.5;exitY=1;entryX=0.46;entryY=0;" edge="1" parent="1" source="17" target="18">
          <mxGeometry relative="1" as="geometry">
            <Array as="points">
              <mxPoint x="131" y="2488" />
            </Array>
          </mxGeometry>
        </mxCell>
        <mxCell id="31" value="" style="curved=1;startArrow=none;endArrow=block;exitX=0.5;exitY=1;entryX=0.5;entryY=0;" edge="1" parent="1" source="16" target="19">
          <mxGeometry relative="1" as="geometry">
            <Array as="points" />
          </mxGeometry>
        </mxCell>
        <mxCell id="32" value="" style="curved=1;startArrow=none;endArrow=block;exitX=0.5;exitY=1;entryX=0.73;entryY=0;" edge="1" parent="1" source="19" target="18">
          <mxGeometry relative="1" as="geometry">
            <Array as="points">
              <mxPoint x="397" y="2463" />
              <mxPoint x="196" y="2488" />
            </Array>
          </mxGeometry>
        </mxCell>
      </root>
    </mxGraphModel>
  </diagram>
</mxfile>
